<svg id="SvgjsSvg1016" width="288" height="288" xmlns="http://www.w3.org/2000/svg" version="1.1" xmlns:xlink="http://www.w3.org/1999/xlink" xmlns:svgjs="http://svgjs.com/svgjs"><defs id="SvgjsDefs1017"></defs><g id="SvgjsG1018" transform="matrix(1,0,0,1,0,0)"><svg xmlns="http://www.w3.org/2000/svg" enable-background="new 0 0 1024 1024" viewBox="0 0 1024 1024" width="288" height="288"><path fill="none" stroke="#00798a" stroke-miterlimit="10" stroke-width="20" d="M577.27,804.78l-41.85,0.78L368.55,916.18c-0.57,0.41-1.36,0-1.36-0.7V804.34h-81.51
		c-59,0-106.81-47.82-106.81-106.81V394.45c0-58.99,47.81-106.81,106.81-106.81h81.72h290.23h80.7
		c58.99,0,106.81,47.82,106.81,106.81v303.08c0,58.99-47.82,106.81-106.81,106.81l-43.64,0.44H577.27z" class="colorStroke000 svgStroke"></path><circle cx="389.34" cy="448.2" r="61.34" fill="none" stroke="#00798a" stroke-miterlimit="10" stroke-width="20" class="colorStroke000 svgStroke"></circle><circle cx="635.34" cy="448.2" r="61.34" fill="none" stroke="#00798a" stroke-miterlimit="10" stroke-width="20" class="colorStroke000 svgStroke"></circle><path fill="none" stroke="#00798a" stroke-miterlimit="10" stroke-width="20" d="M847.21 634.45V463.13h46.48c19.39 0 35.11 15.72 35.11 35.11v101.11c0 19.39-15.72 35.11-35.11 35.11H847.21zM95.2 599.35V498.24c0-19.39 15.72-35.11 35.11-35.11h46.48v171.33h-46.48C110.92 634.45 95.2 618.73 95.2 599.35zM641.86 606.34c-8.57 61.51-64.53 109-132.32 109-67.77 0-123.75-47.49-132.32-109H641.86z" class="colorStroke000 svgStroke"></path><circle cx="509.54" cy="149.59" r="41.94" fill="none" stroke="#00798a" stroke-miterlimit="10" stroke-width="20" class="colorStroke000 svgStroke"></circle><line x1="509.54" x2="509.54" y1="244.21" y2="191.53" fill="none" stroke="#00798a" stroke-miterlimit="10" stroke-width="20" class="colorStroke000 svgStroke"></line></svg></g></svg>